<svg xmlns="http://www.w3.org/2000/svg" viewBox="0 0 242.76 87.2"><defs><style>.cls-1{isolation:isolate;}.cls-2{fill:#21244d;}</style></defs><g id="Calque_2" data-name="Calque 2"><g id="ETH"><g id="ARC" class="cls-1"><g class="cls-1"><path class="cls-2" d="M29.74,1.58H49.43L78.9,84.88H60l-5.5-17.12H23.86L18.21,84.88H0ZM28.59,53.4H49.92L39.4,20.63Z"/><path class="cls-2" d="M142.88,3.73a20.63,20.63,0,0,1,7.79,5.82,25.58,25.58,0,0,1,4.19,7,23.32,23.32,0,0,1,1.55,8.76,25,25,0,0,1-3,11.67,16.78,16.78,0,0,1-9.89,8.11q5.78,2.31,8.17,6.58t2.4,13V70.3a41.65,41.65,0,0,0,.46,7.74,7,7,0,0,0,3.21,4.75v2.09H138.55c-.53-1.85-.9-3.33-1.13-4.46a41.51,41.51,0,0,1-.74-7.18l-.11-7.74q-.1-8-2.75-10.63t-9.92-2.65h-17V84.88h-17V1.58h39.85Q138.28,1.76,142.88,3.73Zm-36,12.32V38.43h18.74c3.71,0,6.51-.45,8.37-1.36q4.94-2.37,4.93-9.38,0-7.57-4.77-10.17-2.68-1.47-8-1.47Z"/><path class="cls-2" d="M181,10.29Q191.1,0,206.64,0q20.81,0,30.41,13.79a30.05,30.05,0,0,1,5.71,15.54H225.35a23.8,23.8,0,0,0-4.26-9q-4.65-5.43-13.79-5.43a17,17,0,0,0-14.67,7.66q-5.37,7.66-5.37,21.67t5.67,21a17.73,17.73,0,0,0,14.4,7q9,0,13.65-6,2.61-3.21,4.31-9.66h17.29q-2.24,13.62-11.43,22.15T207.59,87.2q-17.78,0-28-11.53T169.46,43.91Q169.46,22.1,181,10.29Z"/></g></g></g></g></svg>