<svg xmlns="http://www.w3.org/2000/svg" viewBox="0 0 1920 1080"><defs><style>.cls-1{fill:#13d3ff;}.cls-2{fill:#21244c;}.cls-3{fill:#005bba;}.cls-4,.cls-9{fill:none;}.cls-5,.cls-8{fill:#fff;}.cls-6{fill:#0c82ca;}.cls-7{fill:#050a56;}.cls-8{opacity:0.6;}.cls-9{stroke:#fff;stroke-miterlimit:10;stroke-width:2px;opacity:0.2;}</style></defs><g id="Calque_2" data-name="Calque 2"><g id="ARC-header-background"><polygon class="cls-1" points="485 1080 0 1080 0 223 485 496 485 1080"/><polygon class="cls-2" points="1356 0 485 496 0 223 0 0 1356 0 1356 0"/><polygon class="cls-3" points="1920 1080 485 1080 485 689 484 496 1356 0 1920 0 1920 1080"/><path class="cls-4" d="M756.5,339.51C702.4,245.39,600.85,182,484.5,182,368.36,182,267,245.16,212.8,339L485,496Z"/><path class="cls-3" d="M798,495.5a312.09,312.09,0,0,0-41.5-156L485,496V809C657.91,808.72,798,668.47,798,495.5Z"/><path class="cls-4" d="M212.8,339A312.12,312.12,0,0,0,171,495.5C171,668.64,311.36,809,484.5,809h.5V496Z"/></g><g id="ARC-logo"><circle class="cls-5" cx="485" cy="496" r="123"/><path class="cls-6" d="M485,373A123,123,0,1,1,362,496,123,123,0,0,1,485,373m0-40a162.67,162.67,0,1,0,63.46,12.83A162,162,0,0,0,485,333Z"/><g id="Groupe_10" data-name="Groupe 10"><path id="Tracé_63" data-name="Tracé 63" class="cls-7" d="M406.18,511.85c-9,0-14.17-6.37-14.17-16s5.53-15.75,14.4-15.75a12.27,12.27,0,0,1,12.88,10.73h-5.15a7.64,7.64,0,0,0-7.9-6.34c-4.85,0-8.72,4-8.72,11.36s3.76,11.57,8.66,11.57a7.59,7.59,0,0,0,8-6.33h5.15A12.45,12.45,0,0,1,406.18,511.85Z"/><path id="Tracé_64" data-name="Tracé 64" class="cls-7" d="M423,496c0-9.42,5.62-15.84,14.61-15.84s14.61,6.42,14.61,15.84-5.62,15.87-14.61,15.87S423,505.39,423,496Zm23.69,0c0-7.43-4-11.45-9.08-11.45s-9.08,4-9.08,11.45,4,11.48,9.08,11.48S446.71,503.41,446.71,496Z"/><path id="Tracé_65" data-name="Tracé 65" class="cls-7" d="M466.47,505,474,480.69h5.65L469.21,511.3h-5.74l-10.6-30.61h5.81Z"/><path id="Tracé_66" data-name="Tracé 66" class="cls-7" d="M482.81,511.3V480.69h5.37V511.3Z"/><path id="Tracé_67" data-name="Tracé 67" class="cls-7" d="M519.79,496c0,11.95-7.38,15.32-17.1,15.32h-8.35V480.69h8.35C512.4,480.69,519.79,484,519.79,496ZM499.7,485v22h2.74c5.87,0,11.78-1.31,11.78-11s-5.91-11-11.78-11Z"/><path id="Tracé_68" data-name="Tracé 68" class="cls-7" d="M524.65,497.67h13.76v4.51H524.65Z"/><path id="Tracé_69" data-name="Tracé 69" class="cls-7" d="M545.75,488h-6.83v-3.47c4.43-.12,6.58-.5,8.14-3.84h3.72V511.3h-5Z"/><path id="Tracé_70" data-name="Tracé 70" class="cls-7" d="M565.52,501.05a9.93,9.93,0,0,1-10.18-9.67c0-.27,0-.54,0-.81a10.37,10.37,0,0,1,10.26-10.46c.3,0,.59,0,.89,0,7.94,0,11.49,6,11.49,14.95s-3.27,16.76-12.21,16.76a9.1,9.1,0,0,1-9.83-8.23h5.11a4.68,4.68,0,0,0,5,4.37h.16c4.13,0,6.58-4.18,6.67-10.43A8.68,8.68,0,0,1,565.52,501.05Zm-5-10.53a5.94,5.94,0,1,0,0-.69c0,.23,0,.47,0,.7Z"/></g><path class="cls-8" d="M234.43,443.56h22.44l33.56,94.88h-21.5l-6.26-19.51H227.74l-6.44,19.51H200.57Zm-1.3,59h24.3l-12-37.34Z"/><path class="cls-8" d="M509.94,213.94a23.49,23.49,0,0,1,8.88,6.63,29.85,29.85,0,0,1,4.78,8,26.58,26.58,0,0,1,1.75,10,28.44,28.44,0,0,1-3.41,13.29q-3.41,6.54-11.26,9.24,6.55,2.64,9.3,7.5t2.73,14.83v6.38a47.57,47.57,0,0,0,.53,8.81A7.9,7.9,0,0,0,526.9,304v2.38H505c-.6-2.1-1-3.8-1.28-5.08a46,46,0,0,1-.84-8.18l-.13-8.81q-.12-9.09-3.14-12.11t-11.29-3H469v37.2H449.6V211.5H495Q504.7,211.7,509.94,213.94Zm-41,14v25.48H490.3q6.36,0,9.54-1.54,5.63-2.7,5.62-10.68,0-8.62-5.44-11.59c-2-1.12-5.09-1.67-9.17-1.67Z"/><path class="cls-8" d="M693.94,453.06q11.46-11.71,29.17-11.72,23.68,0,34.64,15.71,6,8.82,6.49,17.7H744.42c-1.27-4.55-2.88-8-4.86-10.3q-5.29-6.18-15.7-6.18A19.36,19.36,0,0,0,707.15,467Q701,475.72,701,491.68t6.46,23.91a20.22,20.22,0,0,0,16.4,7.95q10.2,0,15.55-6.83,3-3.66,4.91-11h19.7q-2.55,15.51-13,25.23t-26.84,9.72q-20.25,0-31.84-13.13t-11.59-36.18Q680.76,466.51,693.94,453.06Z"/><circle class="cls-9" cx="484.5" cy="495.5" r="313.5"/></g></g></svg>